<?xml version="1.0" standalone="no"?>
<!DOCTYPE svg PUBLIC "-//W3C//DTD SVG 20010904//EN"
 "http://www.w3.org/TR/2001/REC-SVG-20010904/DTD/svg10.dtd">
<svg version="1.0" xmlns="http://www.w3.org/2000/svg"
 width="512.000000pt" height="512.000000pt" viewBox="0 0 512.000000 512.000000"
 preserveAspectRatio="xMidYMid meet">
<metadata>
Created by potrace 1.14, written by Peter Selinger 2001-2017
</metadata>
<g transform="translate(0.000000,512.000000) scale(0.100000,-0.100000)"
fill="#000000" stroke="none">
<path d="M767 5064 c-1 -1 -22 -4 -46 -8 -134 -18 -262 -131 -310 -274 -21
-61 -21 -65 -21 -2222 0 -2157 0 -2161 21 -2222 47 -141 155 -239 296 -271 84
-19 3656 -17 3723 2 127 36 230 133 279 264 l21 58 -3 1817 -2 1817 -28 56
c-23 47 -104 133 -460 489 -434 434 -470 465 -557 486 -28 6 -2906 14 -2913 8z
m2653 -674 c-1 -226 1 -263 18 -318 36 -113 98 -189 210 -254 73 -43 135 -51
402 -52 l245 -1 0 -1638 c0 -901 -2 -1641 -5 -1645 -7 -9 -3453 -9 -3460 0 -4
5 -6 4163 -1 4163 0 0 584 0 1296 0 l1295 0 0 -255z"/>
<path d="M1765 3634 c-350 -72 -577 -409 -520 -773 35 -225 225 -447 440 -514
104 -32 132 -36 235 -33 165 5 306 60 421 164 83 74 108 157 74 240 -41 97
-140 142 -246 110 -21 -6 -46 -18 -56 -27 -83 -75 -127 -93 -218 -93 -152 -1
-276 138 -262 292 9 100 59 174 148 219 54 27 69 30 133 27 77 -3 116 -19 181
-72 51 -41 89 -56 141 -55 55 0 92 16 132 54 44 43 57 72 61 134 3 68 -22 116
-95 182 -145 129 -371 187 -569 145z"/>
<path d="M2828 3633 c-37 -18 -88 -70 -99 -102 -6 -14 -13 -42 -15 -63 -6 -38
1 -59 126 -363 32 -77 108 -264 170 -415 62 -151 123 -289 136 -306 52 -70
162 -93 244 -51 58 29 79 62 157 254 35 87 103 253 150 368 196 479 191 465
186 513 -9 98 -76 167 -172 179 -39 4 -60 0 -104 -20 -69 -32 -80 -49 -191
-322 -46 -115 -91 -225 -99 -244 l-15 -34 -19 44 c-11 24 -60 143 -109 263
-94 233 -120 273 -190 302 -42 17 -117 16 -156 -3z"/>
<path d="M1370 1986 c-45 -13 -112 -81 -126 -127 -36 -117 41 -239 162 -257
27 -4 126 -7 219 -6 185 1 215 8 269 59 15 16 35 44 43 63 17 41 19 128 4 146
-6 7 -8 15 -5 19 9 8 -73 86 -104 99 -35 15 -415 18 -462 4z"/>
<path d="M2424 1984 c-54 -18 -86 -45 -112 -92 -27 -49 -31 -121 -9 -173 19
-45 72 -96 117 -111 25 -8 210 -11 665 -11 686 0 682 -1 738 56 99 102 74 262
-50 323 -36 18 -76 19 -675 20 -496 1 -645 -2 -674 -12z"/>
<path d="M1377 1286 c-84 -25 -139 -99 -140 -190 -1 -95 63 -174 158 -193 58
-12 386 -8 426 6 160 54 176 285 26 363 -39 20 -58 22 -237 23 -117 1 -210 -2
-233 -9z"/>
<path d="M2401 1275 c-172 -80 -138 -340 50 -372 24 -5 322 -8 661 -7 l617 1
48 25 c52 26 98 89 106 145 12 81 -36 172 -110 209 -36 18 -73 19 -681 20
l-643 1 -48 -22z"/>
</g>
</svg>
